<svg width="17" height="17" viewBox="0 0 17 17" fill="none" xmlns="http://www.w3.org/2000/svg">
<path fill-rule="evenodd" clip-rule="evenodd" d="M2.00002 3.05248V8.12848C2.00005 11.4128 4.02268 14.358 7.08802 15.5371L7.78202 15.8038C8.24418 15.9816 8.75586 15.9816 9.21802 15.8038L9.91202 15.5371C12.9774 14.358 15 11.4128 15 8.12848V3.05248C15.0026 2.66231 14.7761 2.30689 14.4214 2.14448C12.5546 1.32967 10.5368 0.918252 8.50002 0.937146C6.46326 0.918252 4.44546 1.32967 2.57869 2.14448C2.22392 2.30689 1.99741 2.66231 2.00002 3.05248Z" stroke="white" stroke-width="1.2" stroke-linecap="round" stroke-linejoin="round"/>
<path fill-rule="evenodd" clip-rule="evenodd" d="M5.5 7.9375C5.5 7.38522 5.94772 6.9375 6.5 6.9375H10.5C11.0523 6.9375 11.5 7.38522 11.5 7.9375V10.9375C11.5 11.4898 11.0523 11.9375 10.5 11.9375H6.5C5.94772 11.9375 5.5 11.4898 5.5 10.9375V7.9375Z" stroke="white" stroke-width="1.2" stroke-linecap="round" stroke-linejoin="round"/>
<path fill-rule="evenodd" clip-rule="evenodd" d="M8.5 3.9375V3.9375C7.39543 3.9375 6.5 4.83293 6.5 5.9375V6.9375H10.5V5.9375C10.5 4.83293 9.60457 3.9375 8.5 3.9375Z" stroke="white" stroke-width="1.2" stroke-linecap="round" stroke-linejoin="round"/>
<path d="M8.5 9.20605C8.63807 9.20605 8.75 9.31798 8.75 9.45605C8.75 9.59413 8.63807 9.70605 8.5 9.70605C8.36193 9.70605 8.25 9.59413 8.25 9.45605C8.25 9.31798 8.36193 9.20605 8.5 9.20605" stroke="white" stroke-width="1.2" stroke-linecap="round" stroke-linejoin="round"/>
</svg>
